<svg t="1734146701588" class="icon" viewBox="0 0 1024 1024" version="1.1" xmlns="http://www.w3.org/2000/svg" p-id="4276" width="24" height="24"><path d="M439.90528 102.4c-43.95008 0.13312-89.216 4.59264-133.29408 13.91616-0.39424 0.13312-0.78848 0.13312-1.05472 0.26112-31.71328 8.79616-65.13152 17.85344-92.50304 33.34656C185.81504 165.41696 163.84 190.4896 163.84 225.024v121.16992c0 21.00736 10.52672 38.46656 25.3952 52.1216l-23.15776 38.72768A16.59392 16.59392 0 0 0 163.84 445.30688v131.67616c1.31584 19.82464 11.3152 36.7616 25.52832 50.1504-3.55328 3.28192-6.97344 6.56384-9.99936 9.97888-8.2944 9.1904-15.52896 19.69152-15.52896 33.47456v132.1984c0 25.472 15.0016 46.8736 35.39456 61.96736 20.39808 15.104 46.848 25.99424 75.9296 34.13504 57.76384 16.5376 126.0544 22.71232 174.21312 22.71232 28.55424 0 87.50592-4.33152 143.95392-18.64192 28.29312-7.0912 55.66464-16.67072 78.42816-30.19264 22.76352-13.52192 41.57952-31.50848 48.15872-56.192 0.39424-1.31072 0.52736-2.75456 0.52736-4.0704v-140.60032c0-0.78848 0-1.57696-0.13312-2.49344-3.02592-19.4304-13.68576-32.43008-24.73984-42.53696 1.44896-1.1776 2.7648-2.49344 4.08064-3.54304 13.29152-13.39392 22.23616-28.75392 22.23616-45.824h-31.9744c0 5.25824-3.42016 13.66016-13.02528 23.11168-9.344 9.3184-24.4736 19.29728-44.2112 27.6992l12.76416 29.40928a196.57728 196.57728 0 0 0 23.552-11.68896c10.13248 8.66816 17.10592 15.62624 19.34336 27.17696-0.9216 11.68384-7.23968 22.19008-20.5312 32.6912-13.81376 11.1616-34.60096 21.26848-58.55232 29.14304-47.76448 15.88736-108.29312 23.5008-151.98208 23.5008-45.2608 0-112.10752-4.0704-166.71744-18.3808-27.2384-7.2192-51.44576-16.93696-68.02944-29.14304-16.1792-11.68384-25.00096-24.4224-26.57792-40.69888 0.13312-1.31072 1.8432-5.90848 7.10656-11.81696 3.42016-3.80416 8.02304-7.87456 13.02528-12.20608 18.0224 10.10688 38.94784 18.11456 61.31712 24.28416 57.37472 16.14848 123.9552 21.66272 170.53696 21.66272v-31.8976c-43.95008 0-108.9536-5.64736-161.85344-20.48-26.4448-7.35744-49.8688-17.07008-65.65888-28.4928-15.9232-11.2896-23.68512-22.84032-24.60672-36.36224V501.76c3.6864 3.1488 7.6288 6.0416 11.84256 8.66304 23.02976 14.83776 52.10624 24.6784 83.95264 31.7696 63.42144 14.1824 138.0352 17.07008 193.82272 17.07008V527.36c-54.73792 0-127.8976-3.1488-186.9824-16.2816-29.47584-6.56384-55.3984-15.74912-73.2928-27.43296-16.44544-10.50624-25.00096-22.3232-27.89376-36.36736l18.28864-30.58688c18.42176 10.24 39.4752 17.85344 61.056 24.02304 54.87104 15.49312 111.58528 20.61312 132.37248 20.61312v-31.90272c-14.86848 0-72.76544-5.12-123.68896-19.4304-25.26208-7.2192-49.21344-16.80384-65.52576-28.09344-16.31744-11.2896-23.95136-22.4512-23.95136-35.712V272.2816c20.92032 16.80896 49.34656 28.6208 80.7936 37.28896 53.02784 14.69952 116.98176 20.608 178.16576 20.608v-31.8976c-59.2128 0-121.05728-5.90848-169.61024-19.4304-46.71488-12.86656-78.29504-33.08544-88.56064-56.32 1.05472-20.352 11.44832-32.95232 32.37376-44.9024 21.7088-12.47232 53.02784-21.4016 84.608-30.19264 111.45216-23.36768 231.85408-13.78304 315.93472 18.77504l11.58144-29.6704c-45.9264-17.85856-100.00896-29.01504-157.37856-32.6912-14.47424-1.0496-29.0816-1.44384-43.81696-1.44384z m126.45376 82.8416a15.8208 15.8208 0 0 0-14.21312 8.66304L452.80256 390.03648c-2.63168 4.864-2.37056 10.76736 0.52224 15.49312a15.7952 15.7952 0 0 0 13.68576 7.74656h92.76928l-90.79296 306.0224a15.9232 15.9232 0 0 0-2.93888 17.8432 15.99488 15.99488 0 0 0 29.78304-2.2272l359.8848-375.8592a15.9488 15.9488 0 0 0 3.15392-17.32608 15.98976 15.98976 0 0 0-14.60224-9.58464h-93.29664l43.42272-125.76768c1.71008-4.85888 0.9216-10.24-2.0992-14.4384a16.09728 16.09728 0 0 0-13.0304-6.70208h-212.90496z m9.86624 31.8976h180.66944L713.472 342.784c-1.58208 4.85376-0.9216 10.24 2.0992 14.4384a16.59392 16.59392 0 0 0 13.0304 6.83008h78.29504l-288.5632 301.02528 78.1568-263.3472a15.86176 15.86176 0 0 0-2.49856-14.04928 16.22016 16.22016 0 0 0-12.89728-6.2976H492.93312l83.29216-164.23936zM245.42208 327.424a21.1456 21.1456 0 0 0-21.18656 21.13536c-0.128 5.64224 2.10944 11.02848 6.18496 15.09888a21.23264 21.23264 0 0 0 15.0016 6.1696 21.77536 21.77536 0 0 0 15.13472-6.1696c3.9424-4.0704 6.18496-9.45664 6.05184-15.104a21.1456 21.1456 0 0 0-21.18656-21.13024z m0 230.00576a21.23264 21.23264 0 0 0-15.0016 6.1696 21.20704 21.20704 0 0 0-4.59264 23.10144 21.28896 21.28896 0 0 0 19.59424 13.1328 21.28896 21.28896 0 0 0 19.59936-13.1328 21.20704 21.20704 0 0 0-4.59776-23.10144 21.23264 21.23264 0 0 0-15.0016-6.1696z m443.04896 172.76416v79.16544c-3.81952 12.99456-15.0016 25.20576-33.16224 35.97312-18.55488 11.02336-43.55584 19.95264-69.7344 26.7776-52.77184 13.2608-111.06304 17.59232-136.192 17.59232-45.53216 0-112.11264-6.1696-165.53472-21.4016-26.71616-7.74144-50.00704-17.5872-65.536-29.14304-15.52384-11.4176-22.49728-22.7072-22.49728-36.36224v-72.20736c2.49856 2.23232 5.13024 4.33152 7.89504 6.30272 21.5808 15.62112 49.08032 26.38848 78.68928 34.13504 59.3408 15.62112 127.7696 19.4304 174.8736 19.4304 47.24224 0 109.61408-7.61856 162.11456-25.07776 26.18368-8.79616 50.00192-19.69152 68.5568-34.6624 0.13312-0.128 0.39424-0.256 0.52736-0.52224z m-443.04896 55.92576a21.23264 21.23264 0 0 0-15.0016 6.17472c-4.07552 4.06528-6.31296 9.45152-6.18496 15.09376 0 5.64736 2.23744 11.02848 6.18496 14.96576a21.23264 21.23264 0 0 0 15.0016 6.17472 21.23264 21.23264 0 0 0 15.0016-6.17472 21.13536 21.13536 0 0 0 6.18496-14.96576 20.98176 20.98176 0 0 0-6.05184-15.09376 21.77536 21.77536 0 0 0-15.13472-6.17472z" fill="#1296db" p-id="4277"></path></svg>