<?xml version="1.0" encoding="UTF-8"?>
<svg width="72px" height="72px" viewBox="0 0 72 72" version="1.1" xmlns="http://www.w3.org/2000/svg" xmlns:xlink="http://www.w3.org/1999/xlink">
    <title>logo-zh</title>
    <defs>
        <path d="M36,72 L36,72 C31.7718122,72 27.6644297,71.2739496 23.7986578,69.9428571 C18.3624162,68.0067227 13.6510068,64.8605042 9.78523495,60.7462185 C3.74496646,54.3327731 0,45.6201681 0,36.0605042 L0,36.0605042 C0,16.2151261 16.0671142,0 36,0 L36,0 C55.8120808,0 72,16.0941176 72,36.0605042 L72,36.0605042 C72,55.9058824 55.9328862,72 36,72 Z" id="path-1"></path>
        <path d="M36,72 L36,72 C31.7718122,72 27.6644297,71.2739496 23.7986578,69.9428571 C18.3624162,68.0067227 13.6510068,64.8605042 9.78523495,60.7462185 C3.74496646,54.3327731 0,45.6201681 0,36.0605042 L0,36.0605042 C0,16.2151261 16.0671142,0 36,0 L36,0 C55.8120808,0 72,16.0941176 72,36.0605042 L72,36.0605042 C72,55.9058824 55.9328862,72 36,72 Z" id="path-3"></path>
        <path d="M36,72 L36,72 C31.7718122,72 27.6644297,71.2739496 23.7986578,69.9428571 C18.3624162,68.0067227 13.6510068,64.8605042 9.78523495,60.7462185 C3.74496646,54.3327731 0,45.6201681 0,36.0605042 L0,36.0605042 C0,16.2151261 16.0671142,0 36,0 L36,0 C55.8120808,0 72,16.0941176 72,36.0605042 L72,36.0605042 C72,55.9058824 55.9328862,72 36,72 Z" id="path-5"></path>
    </defs>
    <g id="网站-pc" stroke="none" stroke-width="1" fill="none" fill-rule="evenodd">
        <g id="博客正文" transform="translate(-1424.000000, -195.000000)">
            <g id="logo-zh" transform="translate(1424.000000, 195.000000)">
                <g id="Clipped">
                    <mask id="mask-2" fill="white">
                        <use xlink:href="#path-1"></use>
                    </mask>
                    <g id="SVGID_1_"></g>
                    <polygon id="路径" fill="#231815" fill-rule="nonzero" mask="url(#mask-2)" points="64.5100674 2.29915966 53.0335573 56.6319328 16.1879195 30.8571429 19.4496645 15.7310924 42.2818794 31.9462185 48.5637586 2.29915966 5.1946309 2.29915966 -7.73154366 71.5159664 7.48993292 71.5159664 14.7382551 37.9966387 28.5100673 47.7983193 23.4362417 71.5159664 66.2013426 71.5159664 79.731544 2.29915966"></polygon>
                </g>
                <g id="Clipped">
                    <mask id="mask-4" fill="white">
                        <use xlink:href="#path-3"></use>
                    </mask>
                    <g id="SVGID_00000182524712067454123040000013263548770250718399_"></g>
                    <rect id="矩形" fill="#231815" fill-rule="nonzero" mask="url(#mask-4)" x="29.3557048" y="67.7647059" width="18.0000001" height="8.59159664"></rect>
                </g>
                <g id="Clipped">
                    <mask id="mask-6" fill="white">
                        <use xlink:href="#path-5"></use>
                    </mask>
                    <g id="SVGID_00000032645190155781715520000001055045358612580269_"></g>
                    <polygon id="路径" fill="#231815" fill-rule="nonzero" mask="url(#mask-6)" points="48.5637586 2.54117647 18.0000001 2.54117647 18.0000001 -6.29243697 50.4966446 -6.29243697"></polygon>
                </g>
            </g>
        </g>
    </g>
</svg>