<svg width="72" height="72" viewBox="0 0 36 36" fill="none" xmlns="http://www.w3.org/2000/svg">
  <path fill="#231815" fill-rule="evenodd" d="M17.9223421,36 C8.03855672,36 0,27.926612 0,18 C0,8.07338796 8.03855672,0 17.9223421,0 C27.8061275,0 35.8446842,8.07338796 35.8446842,18 C35.8446842,27.926612 27.8061275,36 17.9223421,36 Z M17.9223421,1.94941218 C9.1112156,1.94941218 1.94100178,9.15069469 1.94100178,18 C1.94100178,26.8493053 9.1112156,34.0505878 17.9223421,34.0505878 C26.7334686,34.0505878 33.9036824,26.8493053 33.9036824,18 C33.9036824,9.15069469 26.7334686,1.94941218 17.9223421,1.94941218 Z"/>
  <g transform="translate(7.5022, 4.5657)">
    <path fill="#231815" d="M20.5401406,3.68721055 C19.0588497,2.06483791 17.2008513,0.78874243 15.1129974,0 C15.1129974,0.00641254008 15.1129974,0.0128250802 15.1129974,0.0128250802 L12.6228965,11.5874599 L3.72876658,5.23904524 L2.49010097,11.1770574 L16.8305286,21.2575704 L20.5465254,3.68721055"/>
    <path fill="#231815" d="M7.29152643,17.7755611 L1.90269254,13.9600998 L0,22.8158176 C1.49406058,24.4125401 3.35844387,25.6565729 5.45268264,26.4196651 L7.29152643,17.7755611 Z"/>
  </g>
</svg>
