<svg class="elastic-logo" width="40" height="40" viewBox="0 0 40 40" fill="none" xmlns="http://www.w3.org/2000/svg"><g><path d="M40.1527 20.9588C40.1527 17.5986 38.0653 14.6457 34.9257 13.5087C35.0615 12.7959 35.1294 12.0831 35.1294 11.3534C35.1294 5.09121 30.0382 -1.52588e-05 23.793 -1.52588e-05C20.1273 -1.52588e-05 16.7331 1.74797 14.5948 4.70088C13.5426 3.88628 12.2529 3.44505 10.9122 3.44505C7.58591 3.44505 4.88757 6.14339 4.88757 9.46965C4.88757 10.1994 5.02333 10.9122 5.26092 11.574C2.13831 12.6941 0 15.6979 0 19.0411C0 22.4183 2.10437 25.3712 5.24395 26.5083C5.10819 27.2041 5.0403 27.9338 5.0403 28.6635C5.0403 34.9088 10.1146 39.983 16.3598 39.983C20.0255 39.983 23.4196 38.2181 25.5409 35.2651C26.5931 36.0967 27.8829 36.5549 29.2236 36.5549C32.5498 36.5549 35.2482 33.8566 35.2482 30.5303C35.2482 29.8006 35.1124 29.0878 34.8748 28.4259C37.9974 27.3059 40.1527 24.3021 40.1527 20.9588Z" fill="white"></path><path d="M15.7824 17.2253L24.5732 21.2304L33.432 13.4578C33.5677 12.8129 33.6186 12.185 33.6186 11.5061C33.6186 6.04156 29.1723 1.59523 23.7077 1.59523C20.4324 1.59523 17.3946 3.20745 15.5448 5.9058L14.0684 13.5596L15.7824 17.2253Z" fill="#FED10A"></path><path d="M6.68665 26.5253C6.55088 27.1702 6.49997 27.832 6.49997 28.5108C6.49997 33.9924 10.9633 38.4387 16.4448 38.4387C19.7371 38.4387 22.8088 36.8095 24.6587 34.0942L26.1181 26.4744L24.1665 22.7408L15.3417 18.7187L6.68665 26.5253Z" fill="#24BBB1"></path><path d="M6.63518 11.3195L12.6598 12.745L13.9835 5.90583C13.1689 5.27791 12.1507 4.93849 11.0985 4.93849C8.48499 4.93849 6.34668 7.05983 6.34668 9.69029C6.34668 10.2503 6.4485 10.8104 6.63518 11.3195Z" fill="#EF5098"></path><path d="M6.10983 12.762C3.42846 13.6444 1.54471 16.224 1.54471 19.0581C1.54471 21.8243 3.25875 24.2851 5.82133 25.2694L14.2728 17.6326L12.7284 14.3233L6.10983 12.762Z" fill="#1BA9F5"></path><path d="M26.186 34.0942C27.0176 34.7221 28.0189 35.0785 29.0541 35.0785C31.6676 35.0785 33.8059 32.9571 33.8059 30.3267C33.8059 29.7497 33.7041 29.1896 33.5174 28.6805L27.5098 27.2719L26.186 34.0942Z" fill="#93C83E"></path><path d="M27.4075 25.6937L34.0261 27.238C36.7245 26.3555 38.5912 23.776 38.5912 20.9249C38.5912 18.1757 36.8772 15.6979 34.3146 14.7306L25.6595 22.3165L27.4075 25.6937Z" fill="#0077CC"></path></g></svg>