<svg xmlns="http://www.w3.org/2000/svg" viewBox="0 0 256 256" fill="none">
  <path d="M128 24C106.5 24 88 42.5 88 64c0 16.12 9.88 30.12 24 36.62V232l16-12 16 12V100.62c14.12-6.5 24-20.5 24-36.62 0-21.5-18.5-40-40-40z" fill="#00684A"/>
  <path d="M128 24c21.5 0 40 18.5 40 40 0 16.12-9.88 30.12-24 36.62V232l-16-12-16 12V100.62C97.88 94.12 88 80.12 88 64c0-21.5 18.5-40 40-40z" fill="#00ED64"/>
  <path d="M128 24c21.5 0 40 18.5 40 40 0 16.12-9.88 30.12-24 36.62V232l-16-12V100.62C97.88 94.12 88 80.12 88 64c0-21.5 18.5-40 40-40z" fill="#00684A" opacity="0.5"/>
</svg>
