<svg class="icon" width="24" height="24" viewBox="0 0 341 341" fill="none" xmlns="http://www.w3.org/2000/svg">
<circle cx="170.5" cy="170.5" r="170.5" fill="#081E2B"/>
<path d="M193.21 70.47C182.39 57.7 173.08 44.65 171.18 42C171.14 41.9443 171.088 41.8988 171.027 41.8675C170.966 41.8361 170.898 41.8198 170.83 41.8198C170.762 41.8198 170.694 41.8361 170.633 41.8675C170.572 41.8988 170.52 41.9443 170.48 42C168.59 44.68 159.28 57.73 148.48 70.5C55.77 188.55 163.09 268.22 163.09 268.22L163.96 268.83C164.78 281.15 166.8 298.83 166.8 298.83H174.87C174.87 298.83 176.87 281.19 177.7 268.83L178.58 268.14C178.58 268.14 285.9 188.55 193.21 70.47ZM170.84 266.47C170.84 266.47 166.03 262.37 164.73 260.31V260.09L170.55 131.53C170.563 131.459 170.601 131.394 170.656 131.347C170.712 131.301 170.782 131.275 170.855 131.275C170.928 131.275 170.998 131.301 171.054 131.347C171.109 131.394 171.147 131.459 171.16 131.53L177 260.11V260.33C175.7 262.33 170.89 266.49 170.89 266.49" fill="#00ED64"/>
</svg>
